<svg xmlns="http://www.w3.org/2000/svg" version="1.1" xmlns:xlink="http://www.w3.org/1999/xlink" xmlns:svgjs="http://svgjs.dev/svgjs" width="100%" height="100%" viewBox="0 0 1000 600"><rect width="1000" height="600" x="0" y="0" fill="#ecfffb"/><g><rect width="333.3333333333333" height="333.3333333333333" rx="13.333333333333334" ry="13.333333333333334" y="146.4351743941009" fill="#1e6262" transform="matrix(1.0063361999883544,0,0,1.0063361999883544,0,-15.085736209302368)" x="124.21295928955077"/><path d="M298.6647114784788 260.60732839529146L298.6647114784788 260.60732839529146L310.91800067881456 358.88035251878944Q311.904842762063 367.3781593467628 315.6603251344254 370.8321066381326Q319.38839522669764 374.2860539295024 327.2831318926858 374.2860539295024L327.2831318926858 374.2860539295024Q334.7940966374106 374.2860539295024 337.94650884778775 371.1336417191252Q341.09892105816493 367.981229508748 342.8807192640304 358.88035251878944L342.8807192640304 358.88035251878944L358.2864206747432 242.6522849361865Q359.2732627579918 238.10184644120724 366.56492926199473 238.10184644120724L366.56492926199473 238.10184644120724Q374.0758940067195 238.10184644120724 374.0758940067195 241.66544285293799L374.0758940067195 241.66544285293799Q374.2677799673512 241.44614461221607 374.2677799673512 241.66544285293799Q374.2677799673512 241.85732881356964 374.0758940067195 242.0492147742013L374.0758940067195 242.0492147742013L358.2864206747432 361.07333492600833Q356.3127365082463 371.3255276797569 352.7491400965155 377.24658017924787Q349.21295596487505 383.167632678739 343.1822543450229 385.6347378868603Q337.151552725171 388.10184309498163 327.2831318926858 388.10184309498163L327.2831318926858 388.10184309498163Q311.71295680143135 388.10184309498163 304.5857639779699 381.79701867422716Q297.48598343459867 375.4647819733825 296.3072553907184 361.07333492600833L296.3072553907184 361.07333492600833L291.75681689573923 312.49877460610924L289.7831327292422 312.49877460610924L285.2601065143531 361.07333492600833Q283.8620802297511 375.6566679340142 276.6800628461091 381.8792555144979Q269.4706331823769 388.10184309498163 254.2568177322956 388.10184309498163L254.2568177322956 388.10184309498163Q239.07041456230453 388.10184309498163 232.05287085920398 381.98890463485884Q225.06273943619365 375.87596617473605 223.2809412303283 361.07333492600833L223.2809412303283 361.07333492600833L207.49146789835203 242.0492147742013Q207.68335385898368 241.85732881356964 207.68335385898368 241.66544285293799Q207.68335385898368 241.44614461221607 207.49146789835203 241.66544285293799L207.49146789835203 241.66544285293799Q207.49146789835203 238.10184644120724 215.00243264307684 238.10184644120724L215.00243264307684 238.10184644120724Q222.4859851077114 238.10184644120724 223.2809412303283 242.6522849361865L223.2809412303283 242.6522849361865L238.68664264104123 358.88035251878944Q239.8653706849214 367.5700453073945 243.12743201565954 370.9417557584935Q246.36208106630744 374.2860539295024 254.2568177322956 374.2860539295024L254.2568177322956 374.2860539295024Q262.1515543982837 374.2860539295024 265.82479993037543 370.8321066381326Q269.4706331823769 367.3781593467628 270.64936122625704 358.88035251878944L270.64936122625704 358.88035251878944L282.8752381465025 260.60732839529146Q283.28642234785605 256.05688990031217 290.76997481249066 256.05688990031217L290.76997481249066 256.05688990031217Q298.0890535965839 256.05688990031217 298.6647114784788 260.60732839529146Z " fill="#ecfffb" transform="matrix(1.0063361999883544,0,0,1.0063361999883544,0,-15.085736209302368)"/><path d="M612.8796284993488 387.10184641889896L544.8796284993488 387.10184641889896Q540.8796284993488 387.10184641889896 540.8796284993488 380.10184641889896L540.8796284993488 380.10184641889896Q540.8796284993488 373.10184641889896 544.8796284993488 373.10184641889896L544.8796284993488 373.10184641889896L570.8796284993488 373.10184641889896L570.8796284993488 253.10184641889902L544.8796284993488 253.10184641889902Q540.8796284993488 253.10184641889902 540.8796284993488 246.10184641889902L540.8796284993488 246.10184641889902Q540.8796284993488 239.10184641889902 544.8796284993488 239.10184641889902L544.8796284993488 239.10184641889902L574.8796284993488 239.10184641889902Q582.0740729437932 239.10184641889902 584.4907396104599 241.90740197445456Q586.8796284993488 244.71295753001016 586.8796284993488 253.49073530778793L586.8796284993488 253.49073530778793L586.8796284993488 373.10184641889896L612.8796284993488 373.10184641889896Q616.8796284993488 373.10184641889896 616.8796284993488 380.10184641889896L616.8796284993488 380.10184641889896Q616.8796284993488 387.10184641889896 612.8796284993488 387.10184641889896L612.8796284993488 387.10184641889896ZM735.4907396104599 387.10184641889896L650.8796284993488 387.10184641889896Q646.8796284993488 387.10184641889896 646.8796284993488 380.10184641889896L646.8796284993488 380.10184641889896Q646.8796284993488 375.71295753001004 648.6851840549043 373.71295753001004L648.6851840549043 373.71295753001004L712.2685173882377 296.71295753001016Q718.6851840549043 289.101846418899 721.0740729437932 284.40740197445456Q723.4907396104599 279.71295753001016 723.4907396104599 274.71295753001016L723.4907396104599 274.71295753001016L723.4907396104599 272.2962908633435Q723.4907396104599 261.9074019744546 719.8796284993488 257.49073530778793Q716.2685173882376 253.10184641889902 707.8796284993488 253.10184641889902L707.8796284993488 253.10184641889902L659.4907396104599 253.10184641889902Q655.4907396104599 253.10184641889902 655.4907396104599 246.10184641889902L655.4907396104599 246.10184641889902Q655.4907396104599 239.10184641889902 659.4907396104599 239.10184641889902L659.4907396104599 239.10184641889902L707.8796284993488 239.10184641889902Q724.4907396104599 239.10184641889902 731.9907396104599 246.9074019744546Q739.4907396104599 254.71295753001016 739.4907396104599 272.2962908633435L739.4907396104599 272.2962908633435L739.4907396104599 275.71295753001016Q739.4907396104599 280.9074019744546 735.9907396104599 288.40740197445456Q732.4907396104599 295.9074019744546 726.6851840549043 302.90740197445456L726.6851840549043 302.90740197445456L668.6851840549043 373.10184641889896L735.4907396104599 373.10184641889896Q739.4907396104599 373.10184641889896 739.4907396104599 380.10184641889896L739.4907396104599 380.10184641889896Q739.4907396104599 387.10184641889896 735.4907396104599 387.10184641889896L735.4907396104599 387.10184641889896ZM869.4907396104599 242.71295753001016L869.4907396104599 242.71295753001016L869.4907396104599 383.4907353077879Q869.4907396104599 388.10184641889896 861.4907396104599 388.10184641889896L861.4907396104599 388.10184641889896Q853.49073961046 388.10184641889896 853.49073961046 383.4907353077879L853.49073961046 383.4907353077879L853.49073961046 321.2962908633434L792.8796284993488 321.2962908633434L792.8796284993488 383.4907353077879Q792.8796284993488 388.10184641889896 784.8796284993488 388.10184641889896L784.8796284993488 388.10184641889896Q776.8796284993488 388.10184641889896 776.8796284993488 383.4907353077879L776.8796284993488 383.4907353077879L776.8796284993488 242.71295753001016Q776.8796284993488 238.10184641889902 784.8796284993488 238.10184641889902L784.8796284993488 238.10184641889902Q792.8796284993488 238.10184641889902 792.8796284993488 242.71295753001016L792.8796284993488 242.71295753001016L792.8796284993488 307.2962908633435L853.49073961046 307.2962908633435L853.49073961046 242.71295753001016Q853.49073961046 238.10184641889902 861.4907396104599 238.10184641889902L861.4907396104599 238.10184641889902Q869.4907396104599 238.10184641889902 869.4907396104599 242.71295753001016Z " fill="#1e6262" transform="matrix(1.0063361999883544,0,0,1.0063361999883544,0,-15.085736209302368)"/></g></svg>